HIERARCHY
ROOT root
{
	OFFSET	0	13.1	24.9
	CHANNELS 6  Xposition Yposition Zposition Xrotation Yrotation Zrotation
	JOINT spine_1
	{
		OFFSET	0	9.99999	0
		CHANNELS 3  Xrotation Yrotation Zrotation
		JOINT spine_2
		{
			OFFSET	0	112	-10
			CHANNELS 3  Xrotation Yrotation Zrotation
			JOINT spine_3
			{
				OFFSET	0	206.5	19.3
				CHANNELS 3  Xrotation Yrotation Zrotation
				JOINT spine_4
				{
					OFFSET	0	110.4	14.6
					CHANNELS 3  Xrotation Yrotation Zrotation
					JOINT neck_1
					{
						OFFSET	0	71.8	-50.3
						CHANNELS 3  Xrotation Yrotation Zrotation
						JOINT neck_2
						{
							OFFSET	0	86.2	-25.8
							CHANNELS 3  Xrotation Yrotation Zrotation
							JOINT head_ee
							{
								OFFSET	0	179.8	-8.7
								CHANNELS 3  Xrotation Yrotation Zrotation
								End Site
								{
									OFFSET	1	0	0
								}
							}
						}
					}
					JOINT left_clavicle
					{
						OFFSET	-43.2	22.4	-70.8
						CHANNELS 3  Xrotation Yrotation Zrotation
						JOINT left_shoulder
						{
							OFFSET	-93.9	-5.79999	48.7
							CHANNELS 3  Xrotation Yrotation Zrotation
							JOINT left_elbow
							{
								OFFSET	-291.4	-30.8	15.2
								CHANNELS 3  Xrotation Yrotation Zrotation
								JOINT left_lowarm_twist
								{
									OFFSET	-110.7	-3.89999	13.6
									CHANNELS 3  Xrotation Yrotation Zrotation
									JOINT left_hand
									{
										OFFSET	-110.7	-3.89999	13.6
										CHANNELS 3  Xrotation Yrotation Zrotation
										JOINT left_ee
										{
											OFFSET	-80.8	-5.10001	12.1
											CHANNELS 3  Xrotation Yrotation Zrotation
											End Site
											{
												OFFSET	1	0	0
											}
										}
									}
								}
							}
						}
					}
					JOINT right_clavicle
					{
						OFFSET	43.2	22.4	-70.8
						CHANNELS 3  Xrotation Yrotation Zrotation
						JOINT right_shoulder
						{
							OFFSET	93.9	-5.79999	48.7
							CHANNELS 3  Xrotation Yrotation Zrotation
							JOINT right_elbow
							{
								OFFSET	291.4	-30.8	15.2
								CHANNELS 3  Xrotation Yrotation Zrotation
								JOINT right_lowarm_twist
								{
									OFFSET	110.7	-3.89999	13.6
									CHANNELS 3  Xrotation Yrotation Zrotation
									JOINT right_hand
									{
										OFFSET	110.7	-3.89999	13.6
										CHANNELS 3  Xrotation Yrotation Zrotation
										JOINT right_ee
										{
											OFFSET	80.8	-5.10001	12.1
											CHANNELS 3  Xrotation Yrotation Zrotation
											End Site
											{
												OFFSET	1	0	0
											}
										}
									}
								}
							}
						}
					}
				}
			}
		}
	}
	JOINT left_hip
	{
		OFFSET	-82.8	-127.5	0.300001
		CHANNELS 3  Xrotation Yrotation Zrotation
		JOINT left_knee
		{
			OFFSET	-28.2	-396.7	2.2
			CHANNELS 3  Xrotation Yrotation Zrotation
			JOINT left_ankle
			{
				OFFSET	-11.7	-411.3	35.4
				CHANNELS 3  Xrotation Yrotation Zrotation
				JOINT left_toes
				{
					OFFSET	0	-60	-88.6
					CHANNELS 3  Xrotation Yrotation Zrotation
					JOINT left_foot_ee
					{
						OFFSET	-22.5	-16.5	-42.2
						CHANNELS 3  Xrotation Yrotation Zrotation
						End Site
						{
							OFFSET	1	0	0
						}
					}
				}
			}
		}
	}
	JOINT right_hip
	{
		OFFSET	82.8	-127.5	0.300001
		CHANNELS 3  Xrotation Yrotation Zrotation
		JOINT right_knee
		{
			OFFSET	28.2	-396.7	2.2
			CHANNELS 3  Xrotation Yrotation Zrotation
			JOINT right_ankle
			{
				OFFSET	11.7	-411.3	35.4
				CHANNELS 3  Xrotation Yrotation Zrotation
				JOINT right_toes
				{
					OFFSET	0	-60	-88.6
					CHANNELS 3  Xrotation Yrotation Zrotation
					JOINT right_foot_ee
					{
						OFFSET	22.5	-16.5	-42.2
						CHANNELS 3  Xrotation Yrotation Zrotation
						End Site
						{
							OFFSET	1	0	0
						}
					}
				}
			}
		}
	}
}
MOTION
Frames: 15
Frame Time: 0.02
1203.65148356 717.008 -1717.15592739 -13.6499378549 20.1580843445 5.95703467523 6.83413 0.308446 0.765118 6.83442 0.259136 0.783194 6.83752 0.185773 0.80376 6.83676 0.310377 0.764337 -11.3158 7.90271 -8.31278 -11.2952 20.3731 -5.90198 -0.0 0.0 -0.0 -4.1767 20.8327 -3.6316 -28.1746 -12.1653 70.9377 0.512733 -14.2515 0.0640989 -34.7772 -2.41362 3.66089 2.19046 -10.1244 10.5385 -0.0 0.0 -0.0 11.6142 14.5405 -23.3344 -20.1071 33.2906 -59.7105 0.866432 23.229 -0.178085 -22.0715 1.27595 -2.49972 0.894687 0.105491 -5.94311 0.0 0.0 0.0 25.6629 10.8987 -9.75594 -45.5247 -0.855117 6.75371 37.8767 13.9185 -4.72301 8.12019 -0.0 -0.0 -0.0 0.0 -0.0 28.9911 -1.13564 -7.5647 -17.9154 -0.314626 -2.72009 13.4902 15.804 2.06326 6.98676 -0.0 -0.0 0.0 0.0 0.0 
1180.30381387 728.685 -1732.36060766 -13.7660813554 22.2367489032 5.76131043653 6.8314 0.524107 0.874335 6.8317 0.467411 0.90591 6.83859 0.381887 0.945147 6.83773 0.526357 0.872982 -14.7779 8.91921 -6.99967 -15.0325 21.2117 -3.64006 -0.0 0.0 -0.0 -4.52007 22.6761 -3.68689 -28.6631 -11.8965 70.7729 0.460756 -12.8574 0.0519161 -34.8871 -2.42455 3.6698 2.14606 -9.54876 10.4872 -0.0 0.0 -0.0 11.5555 14.3011 -23.2087 -19.6136 33.2936 -59.4636 0.866587 23.2327 -0.178146 -22.6246 1.31992 -2.5553 1.04644 -0.0894412 -7.04294 0.0 0.0 0.0 32.3829 7.32658 -11.8486 -45.8289 -0.878605 6.7942 41.6688 13.2827 -5.05458 8.81392 -0.0 -0.0 -0.0 0.0 -0.0 27.5787 -1.21156 -6.38925 -17.961 -0.314335 -2.72708 11.761 15.1054 1.8028 7.45017 -0.0 -0.0 0.0 0.0 0.0 
1169.42791925 733.255 -1738.49698682 -15.0119165187 25.2849819669 7.38290576938 7.12033 0.43192 0.750745 7.12056 0.383274 0.776706 7.12535 0.314052 0.807181 7.12471 0.437586 0.747457 -16.845 9.46869 -6.93463 -17.2631 22.0567 -2.9637 -0.0 0.0 -0.0 -5.29653 24.1333 -4.39459 -29.067 -12.0664 70.5875 0.508706 -14.1441 0.0631113 -35.3412 -2.46988 3.70638 2.04382 -9.0877 9.98776 -0.0 0.0 -0.0 11.447 12.7505 -23.0033 -19.6426 32.87 -58.5039 0.961177 25.4605 -0.217149 -22.3196 1.29561 -2.5247 0.775991 0.0972504 -5.14966 0.0 0.0 0.0 34.4526 9.68842 -13.92 -46.0668 -0.897124 6.82578 41.3733 11.579 -5.00939 10.6375 -0.0 -0.0 -0.0 0.0 -0.0 27.1966 -1.13587 -6.37632 -17.8879 -0.314799 -2.71587 11.5467 14.5009 1.7638 7.63432 -0.0 -0.0 0.0 0.0 0.0 
1129.71627616 729.167 -1750.50817408 -16.609869086 32.055793741 9.95727193758 7.62641 0.366119 0.473896 7.62647 0.335222 0.496233 7.62923 0.295236 0.521014 7.62905 0.373815 0.46785 -18.8525 10.5735 -5.94513 -19.526 23.4706 -1.15549 -0.0 0.0 -0.0 -8.46268 24.6325 -8.63233 -27.7838 -11.2092 74.5113 0.57749 -15.9645 0.0809789 -35.6969 -2.50558 3.73479 1.73641 -7.46534 8.58539 -0.0 0.0 -0.0 11.2528 9.28895 -22.5995 -19.5523 32.3934 -55.0956 1.12683 29.1694 -0.293206 -22.9893 1.3492 -2.59171 0.226237 0.370339 -1.35616 0.0 0.0 0.0 37.5154 11.8246 -15.649 -46.1253 -0.901697 6.83353 41.0427 9.92031 -4.96624 15.061 -0.0 -0.0 -0.0 0.0 -0.0 25.7565 -0.0969187 -6.11152 -17.8171 -0.315234 -2.70502 12.8289 14.4521 1.94841 7.0813 -0.0 -0.0 0.0 0.0 0.0 
1114.40166494 729.213 -1752.5451686 -17.168858063 34.150749117 10.9905881754 7.76923 0.393544 0.269214 7.76919 0.375616 0.293711 7.77114 0.352197 0.321419 7.77122 0.398539 0.261763 -23.5583 10.0032 -2.66022 -24.3598 20.4652 2.51774 -0.0 0.0 -0.0 -9.90388 24.6303 -10.6842 -26.8527 -9.89601 77.9387 0.621747 -17.1187 0.0935803 -35.1696 -2.45271 3.6926 1.35318 -5.64951 6.74609 -0.0 0.0 -0.0 11.247 6.54784 -22.5535 -19.5156 31.7672 -54.0097 1.24955 31.7558 -0.355435 -24.0839 1.43847 -2.69988 -0.803797 -1.91379 4.53792 0.0 0.0 0.0 40.8695 10.2057 -15.1789 -42.0904 -0.605089 6.28841 36.0608 10.4312 -4.51723 17.0954 -0.0 -0.0 -0.0 0.0 -0.0 22.3057 -4.04573 -5.93972 -13.2855 -0.315196 -2.00993 16.2942 11.67 2.39255 5.62924 -0.0 -0.0 0.0 0.0 0.0 
1055.83022932 719.235 -1780.53785656 -17.9654616267 40.1641228937 11.6728286916 8.53335 0.0982226 -0.0557479 8.53334 0.101571 -0.0493847 8.53326 0.104471 -0.0429106 8.53327 0.0963829 -0.0588713 -25.5559 10.0696 1.05603 -26.3351 18.9556 6.33026 -0.0 0.0 -0.0 -12.1737 24.4965 -14.0907 -27.3924 -6.66395 81.381 0.559029 -15.479 0.0759767 -34.3305 -2.36938 3.62446 0.7476 -1.59161 4.3434 -0.0 0.0 -0.0 10.5726 0.824051 -20.8884 -19.1605 31.2584 -52.598 1.41306 34.9895 -0.445412 -25.2036 1.53192 -2.80876 -1.70829 1.01358 11.9516 0.0 0.0 0.0 41.5734 6.10681 -12.4134 -40.5151 -0.49986 6.07023 33.2448 12.2375 -4.25171 21.986 -0.0 -0.0 -0.0 0.0 -0.0 21.3072 2.17895 -4.67425 -20.4059 -0.290593 -3.10143 26.5805 6.89664 3.60938 2.43465 -0.0 -0.0 0.0 0.0 0.0 
1040.53798816 716.964 -1782.98028935 -18.1933233844 41.3123187972 11.7373272184 8.81898 -0.0736732 -0.171251 8.819 -0.0626268 -0.175592 8.81916 -0.0523732 -0.178918 8.81912 -0.0799726 -0.168401 -26.0229 9.70465 -0.323705 -26.8158 18.8046 4.93972 -0.0 0.0 -0.0 -12.0708 24.2057 -14.0822 -27.3341 -5.61999 82.147 0.451428 -12.6055 0.0498605 -33.5769 -2.2954 3.56224 0.500033 -0.461831 3.14997 -0.0 0.0 -0.0 10.3787 1.05902 -20.4938 -19.0237 30.7801 -52.5344 1.44155 35.5285 -0.461861 -26.1267 1.61056 -2.89716 -1.59251 0.899669 11.1082 0.0 0.0 0.0 41.8921 3.86194 -11.2096 -32.306 -0.0511448 4.89248 29.8422 12.4039 -3.89418 22.6996 -0.0 -0.0 -0.0 0.0 -0.0 20.4503 1.31562 -3.20455 -22.8219 -0.251461 -3.47007 28.1276 7.78969 3.79887 1.04328 -0.0 -0.0 0.0 0.0 0.0 
1025.24648594 714.608 -1791.76726461 -17.9594370517 41.4947736964 11.7219141271 9.13514 -0.0317586 -0.326416 9.1352 -0.0109237 -0.327775 9.13515 0.00623164 -0.327898 9.135 -0.0456317 -0.324767 -29.1023 9.56961 1.32702 -29.9331 17.8593 6.92176 -0.0 0.0 -0.0 -12.384 24.0362 -14.6466 -27.4271 -3.91331 82.5808 0.472919 -13.1851 0.0546566 -31.1672 -2.06446 3.35687 1.17484 -1.85346 7.11539 -0.0 0.0 -0.0 10.0813 0.202211 -19.833 -19.8169 29.9978 -52.3008 1.50746 36.7481 -0.500732 -25.8392 1.58591 -2.86976 -1.98579 1.48733 14.0794 0.0 0.0 0.0 41.3092 4.55462 -9.11663 -21.9518 0.267345 3.33749 22.6334 17.6259 -3.10598 23.2886 -0.0 -0.0 -0.0 0.0 -0.0 17.9263 3.64825 -3.16885 -20.3886 -0.290816 -3.0988 30.5453 8.405 4.07478 -1.80253 0.0 0.0 0.0 0.0 0.0 
1021.35639908 714.608 -1787.45203931 -18.1561416739 42.1687941482 12.0168420603 9.13514 -0.0317586 -0.326416 9.1352 -0.0109237 -0.327775 9.13515 0.00623164 -0.327898 9.135 -0.0456317 -0.324767 -29.1023 9.56961 1.32702 -29.9331 17.8593 6.92176 -0.0 0.0 -0.0 -12.384 24.0362 -14.6466 -27.4271 -3.91331 82.5808 0.472919 -13.1851 0.0546566 -31.1672 -2.06446 3.35687 1.17484 -1.85346 7.11539 -0.0 0.0 -0.0 10.0813 0.202211 -19.833 -19.8169 29.9978 -52.3008 1.50746 36.7481 -0.500732 -25.8392 1.58591 -2.86976 -1.98579 1.48733 14.0794 0.0 0.0 0.0 41.3092 4.55462 -9.11663 -21.9518 0.267345 3.33749 22.6334 17.6259 -3.10598 23.2886 -0.0 -0.0 -0.0 0.0 -0.0 17.9263 3.64825 -3.16885 -20.3886 -0.290816 -3.0988 30.5453 8.405 4.07478 -1.80253 0.0 0.0 0.0 0.0 0.0 
1013.55544119 709.87 -1804.77253376 -18.5092806581 41.3871259889 11.9985596309 9.42052 -0.147907 -0.343067 9.42058 -0.125777 -0.351783 9.42122 -0.108997 -0.357338 9.42108 -0.164063 -0.33564 -29.6046 9.52725 1.63153 -30.4342 17.6659 7.26565 -0.0 0.0 -0.0 -12.2038 23.8004 -14.4904 -26.7684 -2.93946 82.7943 0.408328 -11.4354 0.0408839 -30.2545 -1.97928 3.2766 0.8075 1.24071 5.90698 -0.0 0.0 -0.0 9.90075 -1.45348 -19.3751 -18.9197 29.5487 -52.8282 1.49345 36.4921 -0.492376 -25.3817 1.54698 -2.82592 -1.91751 1.09207 13.4245 0.0 0.0 0.0 40.7106 4.34494 -8.27835 -16.76 0.320142 2.54291 24.417 14.4828 -3.29296 22.0258 -0.0 -0.0 -0.0 0.0 -0.0 17.5529 0.116604 -2.10025 -22.1204 -0.264425 -3.3632 31.3263 7.96053 4.14986 -3.69753 0.0 0.0 0.0 0.0 0.0 
1009.87631082 712.419 -1818.62503922 -18.9275924623 39.0412887449 11.5703393742 9.6228 0.0905072 -0.288597 9.62284 0.108688 -0.282253 9.62223 0.120948 -0.277221 9.62213 0.0756485 -0.292843 -29.1398 9.5653 2.07253 -29.9379 17.5924 7.61634 -0.0 0.0 -0.0 -11.8505 23.549 -14.0728 -25.5671 -2.53393 82.657 0.385578 -10.8137 0.0364944 -29.1589 -1.87875 3.17847 0.908096 2.04621 6.90598 -0.0 0.0 -0.0 9.77962 -1.63692 -19.1185 -19.3251 29.1242 -53.0839 1.51186 36.8283 -0.503369 -25.3056 1.54053 -2.81859 -1.86118 1.13372 13.056 0.0 0.0 0.0 41.3816 2.53652 -6.47148 -10.5263 0.288258 1.58746 20.8782 18.2202 -2.89366 21.9221 -0.0 -0.0 -0.0 0.0 -0.0 16.5769 -0.231568 -2.13377 -17.9605 -0.314338 -2.72701 31.5684 8.00146 4.17609 -5.6879 0.0 0.0 0.0 0.0 0.0 
1005.53374669 712.419 -1813.98634745 -19.1228225282 39.7309010219 11.8780037293 9.6228 0.0905072 -0.288597 9.62284 0.108688 -0.282253 9.62223 0.120948 -0.277221 9.62213 0.0756485 -0.292843 -29.1398 9.5653 2.07253 -29.9379 17.5924 7.61634 -0.0 0.0 -0.0 -11.8505 23.549 -14.0728 -25.5671 -2.53393 82.657 0.385578 -10.8137 0.0364944 -29.1589 -1.87875 3.17847 0.908096 2.04621 6.90598 -0.0 0.0 -0.0 9.77962 -1.63692 -19.1185 -19.3251 29.1242 -53.0839 1.51186 36.8283 -0.503369 -25.3056 1.54053 -2.81859 -1.86118 1.13372 13.056 0.0 0.0 0.0 41.3816 2.53652 -6.47148 -10.5263 0.288258 1.58746 20.8782 18.2202 -2.89366 21.9221 -0.0 -0.0 -0.0 0.0 -0.0 16.5769 -0.231568 -2.13377 -17.9605 -0.314338 -2.72701 31.5684 8.00146 4.17609 -5.6879 0.0 0.0 0.0 0.0 0.0 
1001.38140881 712.419 -1809.43788941 -19.3185808524 40.3985167782 12.1821348809 9.6228 0.0905072 -0.288597 9.62284 0.108688 -0.282253 9.62223 0.120948 -0.277221 9.62213 0.0756485 -0.292843 -29.1398 9.5653 2.07253 -29.9379 17.5924 7.61634 -0.0 0.0 -0.0 -11.8505 23.549 -14.0728 -25.5671 -2.53393 82.657 0.385578 -10.8137 0.0364944 -29.1589 -1.87875 3.17847 0.908096 2.04621 6.90598 -0.0 0.0 -0.0 9.77962 -1.63692 -19.1185 -19.3251 29.1242 -53.0839 1.51186 36.8283 -0.503369 -25.3056 1.54053 -2.81859 -1.86118 1.13372 13.056 0.0 0.0 0.0 41.3816 2.53652 -6.47148 -10.5263 0.288258 1.58746 20.8782 18.2202 -2.89366 21.9221 -0.0 -0.0 -0.0 0.0 -0.0 16.5769 -0.231568 -2.13377 -17.9605 -0.314338 -2.72701 31.5684 8.00146 4.17609 -5.6879 0.0 0.0 0.0 0.0 0.0 
996.019942129 712.419 -1803.39403565 -19.585535558 41.2730755914 12.590376159 9.6228 0.0905072 -0.288597 9.62284 0.108688 -0.282253 9.62223 0.120948 -0.277221 9.62213 0.0756485 -0.292843 -29.1398 9.5653 2.07253 -29.9379 17.5924 7.61634 -0.0 0.0 -0.0 -11.8505 23.549 -14.0728 -25.5671 -2.53393 82.657 0.385578 -10.8137 0.0364944 -29.1589 -1.87875 3.17847 0.908096 2.04621 6.90598 -0.0 0.0 -0.0 9.77962 -1.63692 -19.1185 -19.3251 29.1242 -53.0839 1.51186 36.8283 -0.503369 -25.3056 1.54053 -2.81859 -1.86118 1.13372 13.056 0.0 0.0 0.0 41.3816 2.53652 -6.47148 -10.5263 0.288258 1.58746 20.8782 18.2202 -2.89366 21.9221 -0.0 -0.0 -0.0 0.0 -0.0 16.5769 -0.231568 -2.13377 -17.9605 -0.314338 -2.72701 31.5684 8.00146 4.17609 -5.6879 0.0 0.0 0.0 0.0 0.0 
990.561162681 712.419 -1797.03216431 -19.8752691967 42.1789344543 13.0256784909 9.6228 0.0905072 -0.288597 9.62284 0.108688 -0.282253 9.62223 0.120948 -0.277221 9.62213 0.0756485 -0.292843 -29.1398 9.5653 2.07253 -29.9379 17.5924 7.61634 -0.0 0.0 -0.0 -11.8505 23.549 -14.0728 -25.5671 -2.53393 82.657 0.385578 -10.8137 0.0364944 -29.1589 -1.87875 3.17847 0.908096 2.04621 6.90598 -0.0 0.0 -0.0 9.77962 -1.63692 -19.1185 -19.3251 29.1242 -53.0839 1.51186 36.8283 -0.503369 -25.3056 1.54053 -2.81859 -1.86118 1.13372 13.056 0.0 0.0 0.0 41.3816 2.53652 -6.47148 -10.5263 0.288258 1.58746 20.8782 18.2202 -2.89366 21.9221 -0.0 -0.0 -0.0 0.0 -0.0 16.5769 -0.231568 -2.13377 -17.9605 -0.314338 -2.72701 31.5684 8.00146 4.17609 -5.6879 0.0 0.0 0.0 0.0 0.0 
